<svg width="150" height="31" fill="none" xmlns="http://www.w3.org/2000/svg"><path d="M86.783 9.301c1.34-5.083-1.928-9.29-9.936-9.29H59.49l-6.503 24.862 3.775 6.116h12.347c8.09 0 14.358-3.563 15.97-9.756.81-3.175-.13-5.395-2.247-6.505v-.077c2.007-1.227 3.426-3.148 3.951-5.35zM76.2 21.033c-.33 1.298-1.258 2.63-5.104 2.63h-7.878l1.376-5.327h7.843c3.798-.011 4.08 1.354 3.716 2.697h.047zm1.576-11.565c-.283.998-1.094 2.22-4.41 2.22h-7.055l1.175-4.33h7.056c3.351-.022 3.516 1 3.234 2.11zm19.931 9.522h15.805l1.799-7.325H99.612l1.223-4.329h15.546L118.18.011H92.663l-8.09 30.967h28.903l1.894-7.326H96.543l1.164-4.661zM120.391.011l-1.811 7.325h9.442l-6.197 23.642h9.913l6.209-23.642h10.113L150 .011h-29.609z" fill="#007ACC"/><path d="M10.372 30.978H.376L4.704 14.44l1-2.497-2.647 2.497-2.94 2.808L0 8.99 10.372.011h8.078l-8.078 30.967z" fill="#002F5E"/><path d="M46.46 18.147l-3.186-5.094L58.737.01H44.332l-5.88 5.328-19.942 17.26-9.572 8.38h13.629l10.242-8.624 3.446 5.55C37.429 29.301 39.088 31 46.12 31h8.231l-7.879-12.864-.011.011zM37.347 3.63v-.067A8.935 8.935 0 0033.923.846 9.504 9.504 0 0029.54.011H18.897l7.937 12.742 10.513-9.124z" fill="#002F5E"/></svg>