<svg width="168" height="50" fill="none" xmlns="http://www.w3.org/2000/svg"><path d="M20.541 0h-5.195a.99.99 0 00-.727.314C10.095 5.152 1.419 14.47.689 15.413c-.7.903-.361 2.16-.06 2.776.038.076.09.145.148.207l13.84 14.528a1 1 0 00.724.31h5.868c.88 0 1.33-1.052.725-1.689l-9.613-10.108c-.605-.637-.154-1.69.725-1.69h8.192c.875 0 1.328-1.042.731-1.682l-4.428-4.743a1 1 0 00-.731-.317h-3.795c-.874 0-1.328-1.043-.732-1.682l8.99-9.641c.596-.64.142-1.682-.732-1.682zm3.671 46.528h5.33a.99.99 0 00.72-.307c4.615-4.836 13.477-14.163 14.222-15.106.714-.903.368-2.16.06-2.776a.831.831 0 00-.15-.207l-14.13-14.535a1 1 0 00-.717-.303H23.53c-.884 0-1.333 1.062-.718 1.696l9.795 10.094c.615.634.166 1.696-.718 1.696H23.5c-.88 0-1.33 1.053-.724 1.69l4.519 4.743a1 1 0 00.724.31h3.902c.88 0 1.33 1.053.725 1.69l-9.159 9.626c-.606.636-.154 1.689.725 1.689z" fill="#1DA2B5"/><path d="M52.554 10.385c-.135.135-.237 7.13-.237 15.577v15.306h6.86c9.426 0 11.521-.44 14.19-2.974 2.061-1.993 2.872-6.048 1.757-8.785-.71-1.622-2.601-3.547-4.257-4.29l-1.318-.609 1.014-.642c1.42-.845 2.703-3.649 2.703-5.845-.034-3.075-1.757-5.677-4.697-7.062-1.385-.642-2.263-.71-8.65-.81-3.919-.069-7.23 0-7.365.134zm12.738 6.217c1.149.44 1.69 1.656 1.42 3.176-.339 1.724-1.217 2.163-4.596 2.264l-2.872.068-.101-2.906-.102-2.94h2.703c1.487 0 3.075.136 3.548.338zm1.757 11.927c1.25.643 1.487 1.15 1.487 3.075 0 1.554-.777 2.703-2.264 3.278-.44.169-2.264.304-4.02.304h-3.177v-3.48c0-1.926.101-3.616.27-3.75.44-.474 6.589 0 7.704.573zm12.569-17.806c-1.216.642-1.621 1.453-1.621 3.176 0 1.149.202 1.622 1.047 2.399 1.453 1.352 3.244 1.352 4.764 0 .946-.845 1.115-1.216 1.115-2.568 0-1.351-.169-1.723-1.115-2.568-1.216-1.115-2.703-1.25-4.19-.44zm11.894 5.203v3.041h-1.858c-1.723 0-1.892.068-2.23.912-.203.507-.304 1.69-.237 2.636l.102 1.69 2.095.1 2.128.102.068 8.346.101 8.345h6.42l.101-8.38.068-8.345h1.993c2.264 0 2.264 0 2.366-2.737.067-1.993-.169-2.433-1.487-2.5-.372-.034-1.149-.068-1.757-.101l-1.081-.068-.102-2.973-.101-2.94-3.278-.101-3.31-.102v3.075zm64.737-2.5c-.101.304-.203 1.656-.203 3.041v2.5h-1.486c-2.501 0-2.568.102-2.568 2.906v2.5h2.027c1.689 0 2.027.102 2.027.575.034.338 0 3.886 0 7.906 0 4.021.068 7.535.203 7.84.169.472.743.574 3.379.574h3.176l.067-8.38.102-8.345 2.129-.102 2.094-.101v-5l-2.094-.102-2.129-.102-.102-3.142-.101-3.108h-3.142c-2.568 0-3.21.101-3.379.54zm-45.038 6.184c-2.602.878-4.596 2.702-5.913 5.338-.946 1.96-1.082 2.534-1.115 5.136 0 2.635.101 3.142 1.115 5.17 1.25 2.567 2.804 4.054 5.406 5.27 1.52.676 2.196.81 4.257.676 2.061-.102 2.771-.304 4.19-1.183.946-.608 1.824-.946 1.926-.777.101.169.067.912-.034 1.69-.406 2.567-3.176 3.953-7.298 3.615-1.25-.102-2.974-.507-3.852-.879-.879-.405-1.757-.71-1.994-.71-.439 0-2.196 3.008-2.196 3.785 0 .743 3.21 2.23 6.082 2.838 6.285 1.352 12.468-.642 14.63-4.696.71-1.386.744-1.757.845-13.279l.101-11.86-.777-.236c-1.25-.304-4.325-.237-5.034.135-.372.203-.642.71-.642 1.216v.845l-1.115-.845c-2.568-1.96-5.373-2.365-8.582-1.25zm7.737 7.06c1.284 1.386 1.487 2.096 1.284 4.46-.068 1.116-1.25 2.84-2.399 3.515-1.284.743-3.615.676-4.967-.135-1.182-.744-2.399-2.94-2.433-4.393 0-.473.338-1.554.778-2.365.979-1.96 2.534-2.804 4.764-2.602 1.453.136 1.858.338 2.973 1.52zm18.482-7.163c-7.805 2.4-10.508 12.164-5.035 18.178a12.348 12.348 0 007.468 3.785c3.176.371 7.332-1.081 9.258-3.244l.675-.743-1.453-1.352c-.946-.845-1.655-1.284-2.027-1.182-.304.1-1.25.439-2.095.743-1.892.71-4.831.473-6.048-.44-.473-.371-1.149-1.114-1.486-1.723l-.642-1.047h7.061c5.035 0 7.163-.101 7.467-.405.237-.237.406-1.318.406-2.534 0-7.265-6.623-12.198-13.549-10.036zm6.521 6.521c.507.575.946 1.352.946 1.724 0 .642-.236.675-4.426.675h-4.393l.237-.777c.574-1.96 2.399-3.007 4.832-2.838 1.554.101 1.993.304 2.804 1.216zm-65.786-6.284c-.102.237-.135 5.136-.102 10.88l.102 10.474h6.42l.1-10.913.069-10.88h-3.21c-2.298 0-3.278.135-3.38.44z" fill="#060606"/></svg>