<svg width="716" height="836" fill="none" xmlns="http://www.w3.org/2000/svg"><path d="M665.482 475.446l-33.038-44.359s19.977-56.196 25.259-70.629L429.701 53.79l48.693 170.029L312.051 0l55.319 193.315c-102.668-24.344-214.076 10.393-284.282 96.225l4.802 6.447c29.965-12.413 61.659-15.588 94.217-8.853C27.865 346.313-40.325 521.923 24.311 667.414h8.164c4.321-39.837 18.824-67.357 47.156-89.681C91.924 716.296 205.157 832.44 357.862 836v-18.379c-214.364-72.553-212.539-313.692-84.516-380.665-42.738 60.91-37.936 120.762-8.26 180.999L224.941 632.1l5.571 14.145s75.968-3.272 97.193-4.811c12.294 9.333 26.604 35.603 30.83 43.686l-57.337 36.469 8.932 11.932s89.414-23.287 113.04-30.6c33.807 28.29 60.698 62.931 88.166 104.981a296.033 296.033 0 0059.45-45.803c-39.761-61.006-86.149-98.341-138.78-123.745l-19.88 12.702c-17.576-24.056-38.033-45.322-60.602-63.412l-25.451 8.949c-59.834-71.88-19.305-175.129 39.28-168.297.193 0 .385.096.673.192v.193c1.825 23.864-17.576 33.39-36.784 47.342l10.565 14.145c19.304-.769 40.433.482 60.121 4.042l-37.072 26.943 10.277 13.76c96.905-20.4 200.246 30.599 238.278 130.192l16.423 8.083 16.807-42.243 41.106-25.307L716 500.08l-50.518-24.634zm-61.754-30.311l-63.772-31.369c-13.541-6.639-21.417-21.169-19.688-36.277l4.898-41.184 79.81 107.387c-.576.674-.96 1.058-1.248 1.443z" fill="#FDFDFD"/></svg>