<svg width="60" height="70" fill="none" xmlns="http://www.w3.org/2000/svg"><path d="M55.767 39.81l-2.769-3.714s1.674-4.706 2.117-5.914L36.008 4.504l4.08 14.237L26.15 0l4.636 16.187c-8.603-2.039-17.94.87-23.822 8.057l.402.54c2.511-1.04 5.167-1.306 7.895-.742C2.335 28.997-3.38 43.702 2.037 55.884h.684c.362-3.336 1.578-5.64 3.952-7.51C7.703 59.978 17.192 69.703 29.989 70v-1.539c-17.964-6.075-17.811-26.266-7.083-31.874-3.581 5.1-3.179 10.112-.692 15.156l-3.364 1.184.467 1.184s6.366-.273 8.144-.402c1.03.781 2.23 2.98 2.584 3.657L25.24 60.42l.748 1s7.493-1.95 9.473-2.563c2.833 2.369 5.087 5.27 7.388 8.79a24.805 24.805 0 004.982-3.835c-3.332-5.108-7.219-8.234-11.63-10.361l-1.665 1.063a27.902 27.902 0 00-5.079-5.31l-2.133.75c-5.014-6.019-1.617-14.664 3.292-14.092.016 0 .032.008.056.016v.016c.154 1.998-1.472 2.796-3.082 3.964l.885 1.185c1.618-.065 3.389.04 5.038.338l-3.106 2.256.861 1.152c8.12-1.708 16.78 2.563 19.968 10.902l1.376.676 1.408-3.537 3.445-2.119L60 41.873l-4.233-2.063zm-5.175-2.538l-5.344-2.627a2.997 2.997 0 01-1.65-3.037l.41-3.448 6.688 8.991c-.048.057-.08.089-.104.121z" fill="#060606"/></svg>