<svg width="108" height="51" fill="none" xmlns="http://www.w3.org/2000/svg"><path fill-rule="evenodd" clip-rule="evenodd" d="M59.853 32.686c.077.01.02.105.058.154h.03c.29-.213.552-.456.9-.542.675-.062 1.35.12 1.903.513.27.204.514.44.727.702.176.184.437.184.66.253a4.991 4.991 0 011.765.702c.379.223.68.63 1.114.688a4.327 4.327 0 011.496.535c.552.367 1.086.812 1.735.94 1.36.14 2.474.911 3.55 1.658.631.36 1.349.796 2.115.524a.89.89 0 00.47-.485c.068-.505-.241-.892-.561-1.263-.66-.758-1.766-1.404-1.65-2.527.204-.814 1.095-1.299 1.814-1.532.397-.14.883-.098 1.203-.421.184-.117.253-.496.534-.36.232.156.251.422.29.68.107.795-.067 1.59-.784 2.047a3.23 3.23 0 01-1.107.388c.601.495 1.173 1.075 1.512 1.746.199.368.315.775.34 1.192-.02.842-.543 1.582-1.263 2.019-.44.226-.933.332-1.427.309-.195-.009-.368-.048-.561-.048a3.61 3.61 0 01-.009 1.377c-.028.233-.184.485-.164.757.107.14.27.14.436.14.378.01.815-.02 1.01.368.173.36.261.787.396 1.146.057.058.077.194.175.166.253-.233.504-.525.874-.448.348.223.688.487 1.017.738a.56.56 0 01.14.349c.293.116.641.32.738.64.067.215.028.446.087.651.097.232.32.513.14.785l-.108.095-1.075.332a.32.32 0 01-.243-.14c-.573-.029-1.241.14-1.685-.262a2.91 2.91 0 01-.495-.582c-.329.183-.825.292-1.164.068-.702-.553-1.427-1.077-2.366-1.057-.421.097-.94.214-1.35.018-.387-.28-.853-.42-1.173-.834-.445-.474-.465-1.037-.61-1.63l-.03-.028c-.601.165-1.264.087-1.88.048a5.56 5.56 0 00-1.466.156 8.008 8.008 0 01-1.871.14l-.3.235c.14.038.29.028.395.125l.117.125c.515.05 1.086-.038 1.57.098a.472.472 0 01.263.702c-.251.328-.387.745-.727 1.018-.097.107-.348-.02-.368.166a1.46 1.46 0 01-1.078 1.036 1.236 1.236 0 01-.6-.068 22.885 22.885 0 00-1.795-.523c-.204-.06-.36-.253-.532-.38-.263-.008-.612.088-.805-.14a2.142 2.142 0 01-.292-.421 13.94 13.94 0 01-1.859 1.93c-2.872 2.434-7.167 3.23-10.79 1.921a10.845 10.845 0 01-5.194-3.851c.02-.087-.087-.04-.076-.117-.116.253-.292.573-.582.67l-.893.126c-.702.3-1.427.542-2.144.805a1.403 1.403 0 01-1.213-.263 2.561 2.561 0 01-.542-.717c-.14-.067-.35-.008-.494-.048-.145-.04-.225-.14-.312-.234l-.62-1.028a.607.607 0 01.01-.476.715.715 0 01.621-.348c.455-.04.969-.184 1.396.008.203-.231.515-.192.796-.25l.028-.01c-.14-.14-.32-.24-.465-.388-.816.195-1.735.069-2.527-.087-.727-.176-1.358.252-2.075.14l-.223.476c-.329.368-.36.983-.872 1.24-.36.097-.652.34-.972.505-.571.3-1.338.184-1.939.06a1.325 1.325 0 00-.65.075c-.213.147-.42.37-.64.524-.358.155-.67.448-1.077.476-.231-.009-.446-.156-.68-.087-.29.31-.42.824-.882.95s-1.017.03-1.465-.077c-.14.057-.231.184-.396.14a3.26 3.26 0 01-.902-.33.621.621 0 01-.165-.377c.009-.204.153-.368.242-.544.04-.212.02-.474.118-.668.14-.32.465-.506.755-.651a.751.751 0 01.368-.513c.378-.203.768-.66 1.241-.388l.504.437c.448-.195.331-.651.562-1.01.108-.242.252-.524.554-.544.204-.038.421.02.62 0 .3-.07.577-.215.805-.421l-.02-.184c-.291-.535-.357-1.184-.387-1.834-.494.048-1.057.14-1.572.04a2.511 2.511 0 01-1.86-1.515 2.454 2.454 0 01.348-2.473c.416-.5.887-.952 1.404-1.347-.166-.05-.37-.04-.534-.08a2.106 2.106 0 01-1.631-1.503 1.8 1.8 0 01.223-1.338c.079-.088.167-.164.3-.116.36.14.482.33.833.514l.198.116c.93.312 2.182.32 2.527 1.456.232.892-.331 1.58-1 2.085-.504.358-1.008.825-1.263 1.369-.107.396-.048.793.292 1.065.348.33.94.33 1.367.166.805-.331 1.52-.855 2.231-1.404.677-.504 1.501-.702 2.356-.727a2.48 2.48 0 001.07-.507c.524-.513 1.095-.93 1.793-1.095.302-.069.63-.077.942-.128.241-.115.421-.407.629-.562.922-.805 2.183-.794 3.162-1.434.561-.438 1.183-.72 1.93-.68.32.01.637.08.932.204l.02.02c.028-.03-.031-.04-.02-.068a11.09 11.09 0 0117.724.067v-.001z" fill="#FDB827"/><path clip-rule="evenodd" d="M59.853 32.686c.077.01.02.105.058.154h.03c.29-.213.552-.456.9-.542.675-.062 1.35.12 1.903.513.27.204.514.44.727.702.176.184.437.184.66.253a4.991 4.991 0 011.765.702c.379.223.68.63 1.114.688a4.327 4.327 0 011.496.535c.552.367 1.086.812 1.735.94 1.36.14 2.474.911 3.55 1.658.631.36 1.349.796 2.115.524a.89.89 0 00.47-.485c.068-.505-.241-.892-.561-1.263-.66-.758-1.766-1.404-1.65-2.527.204-.814 1.095-1.299 1.814-1.532.397-.14.883-.098 1.203-.421.184-.117.253-.496.534-.36.232.156.251.422.29.68.107.795-.067 1.59-.784 2.047a3.23 3.23 0 01-1.107.388c.601.495 1.173 1.075 1.512 1.746.199.368.315.775.34 1.192-.02.842-.543 1.582-1.263 2.019-.44.226-.933.332-1.427.309-.195-.009-.368-.048-.561-.048a3.61 3.61 0 01-.009 1.377c-.028.233-.184.485-.164.757.107.14.27.14.436.14.378.01.815-.02 1.01.368.173.36.261.787.396 1.146.057.058.077.194.175.166.253-.233.504-.525.874-.448.348.223.688.487 1.017.738a.56.56 0 01.14.349c.293.116.641.32.738.64.067.215.028.446.087.651.097.232.32.513.14.785l-.108.095-1.075.332a.32.32 0 01-.243-.14c-.573-.029-1.241.14-1.685-.262a2.91 2.91 0 01-.495-.582c-.329.183-.825.292-1.164.068-.702-.553-1.427-1.077-2.366-1.057-.421.097-.94.214-1.35.018-.387-.28-.853-.42-1.173-.834-.445-.474-.465-1.037-.61-1.63l-.03-.028c-.601.165-1.264.087-1.88.048a5.56 5.56 0 00-1.466.156 8.008 8.008 0 01-1.871.14l-.3.235c.14.038.29.028.395.125l.117.125c.515.05 1.086-.038 1.57.098a.472.472 0 01.263.702c-.251.328-.387.745-.727 1.018-.097.107-.348-.02-.368.166a1.46 1.46 0 01-1.078 1.036 1.236 1.236 0 01-.6-.068 22.885 22.885 0 00-1.795-.523c-.204-.06-.36-.253-.532-.38-.263-.008-.612.088-.805-.14a2.142 2.142 0 01-.292-.421 13.94 13.94 0 01-1.859 1.93c-2.872 2.434-7.167 3.23-10.79 1.921a10.845 10.845 0 01-5.194-3.851c.02-.087-.087-.04-.076-.117-.116.253-.292.573-.582.67l-.893.126c-.702.3-1.427.542-2.144.805a1.403 1.403 0 01-1.213-.263 2.561 2.561 0 01-.542-.717c-.14-.067-.35-.008-.494-.048-.145-.04-.225-.14-.312-.234l-.62-1.028a.607.607 0 01.01-.476.715.715 0 01.621-.348c.455-.04.969-.184 1.396.008.203-.231.515-.192.796-.25l.028-.01c-.14-.14-.32-.24-.465-.388-.816.195-1.735.069-2.527-.087-.727-.176-1.358.252-2.075.14l-.223.476c-.329.368-.36.983-.872 1.24-.36.097-.652.34-.972.505-.571.3-1.338.184-1.939.06a1.325 1.325 0 00-.65.075c-.213.147-.42.37-.64.524-.358.155-.67.448-1.077.476-.231-.009-.446-.156-.68-.087-.29.31-.42.824-.882.95s-1.017.03-1.465-.077c-.14.057-.231.184-.396.14a3.26 3.26 0 01-.902-.33.621.621 0 01-.165-.377c.009-.204.153-.368.242-.544.04-.212.02-.474.118-.668.14-.32.465-.506.755-.651a.751.751 0 01.368-.513c.378-.203.768-.66 1.241-.388l.504.437c.448-.195.331-.651.562-1.01.108-.242.252-.524.554-.544.204-.038.421.02.62 0 .3-.07.577-.215.805-.421l-.02-.184c-.291-.535-.357-1.184-.387-1.834-.494.048-1.057.14-1.572.04a2.511 2.511 0 01-1.86-1.515 2.454 2.454 0 01.348-2.473c.416-.5.887-.952 1.404-1.347-.166-.05-.37-.04-.534-.08a2.106 2.106 0 01-1.631-1.503 1.8 1.8 0 01.223-1.338c.079-.088.167-.164.3-.116.36.14.482.33.833.514l.198.116c.93.312 2.182.32 2.527 1.456.232.892-.331 1.58-1 2.085-.504.358-1.008.825-1.263 1.369-.107.396-.048.793.292 1.065.348.33.94.33 1.367.166.805-.331 1.52-.855 2.231-1.404.677-.504 1.501-.702 2.356-.727a2.48 2.48 0 001.07-.507c.524-.513 1.095-.93 1.793-1.095.302-.069.63-.077.942-.128.241-.115.421-.407.629-.562.922-.805 2.183-.794 3.162-1.434.561-.438 1.183-.72 1.93-.68.32.01.637.08.932.204l.02.02c.028-.03-.031-.04-.02-.068a11.09 11.09 0 0117.724.067v-.001z" stroke="#FDB827" stroke-width=".31" stroke-miterlimit="22.93"/><path fill-rule="evenodd" clip-rule="evenodd" d="M105.579 0a2.08 2.08 0 100 4.159 2.08 2.08 0 000-4.159zm-.354.265c.118-.012.236-.012.354 0a1.812 1.812 0 011.781 2.167 1.82 1.82 0 01-1.425 1.426 1.813 1.813 0 01-2.169-1.779 1.858 1.858 0 011.455-1.814h.004zM88.684.31v23.485h4.467V.31h-4.468zm7.52 0v23.485h4.461V.31h-4.462zm-52.64.044l.045 11.058a6.406 6.406 0 00-4.512-1.858c-3.68 0-6.634 3.23-6.634 7.253 0 4.024 2.949 7.3 6.634 7.3a6.329 6.329 0 004.512-1.902v1.505h4.423V.354h-4.468zm61.259.575h.973a1.09 1.09 0 01.574.089.622.622 0 01.265.526c0 .457-.293.608-.702.62l.659 1.065h-.312l-.663-1.061h-.53v1.061h-.266V.93h.002zm.265.177h.663c.289 0 .619.038.619.398 0 .473-.515.442-.843.442h-.442v-.842l.003.002zM0 1.416V23.75h4.733V5.263H7.16c1.751 0 3.097 1.308 3.097 2.92 0 1.611-1.429 2.918-3.181 2.918H5.971v5.352l4.733 7.3h5.572L9.731 14.42c2.936-.702 5.13-3.314 5.13-6.414 0-3.639-3.013-6.59-6.722-6.59H0zm54.136.176v22.16h9.82c3.768-.063 6.81-2.921 6.81-6.414 0-2.54-.889-4.353-3.892-5.75 1.219-1.138 1.946-2.659 1.946-4.335a5.757 5.757 0 00-1.592-3.98c-1.063-1.17-2.948-1.685-5.484-1.685l-7.608.004zm4.733 3.803h2.964a2.369 2.369 0 012.386 2.345 2.405 2.405 0 01-2.386 2.387h-1.545v4.025h2.876c1.583 0 2.741 1.25 2.741 2.83-.056 1.637-1.022 2.77-2.742 2.876H58.87V5.395zM23.132 9.327c4.071 0 7.278 2.652 7.21 7.474.002.31-.014.621-.046.93h-9.818a.52.52 0 000 .132c0 1.534 1.376 2.787 3.051 2.787 1.255 0 2.328-.685 2.787-1.685l3.627 1.685c-1.248 2.2-3.707 3.583-6.811 3.583-4.072 0-7.343-3.359-7.343-7.475 0-4.117 3.276-7.431 7.343-7.431zm49.183.752v8.89c0 3.007 3.102 5.44 6.944 5.44 3.84 0 6.987-2.433 6.987-5.44v-8.884l-4.377.043-.045 8.003c0 1.338-1.117 2.433-2.527 2.433-1.411 0-2.566-1.095-2.566-2.433l.045-8.05-4.461-.002zm-49.14 2.343a2.717 2.717 0 00-2.697 2.742h5.44a2.756 2.756 0 00-2.743-2.742zm17.206.753c1.807 0 3.273 1.606 3.273 3.583s-1.466 3.538-3.273 3.538c-1.807 0-3.273-1.563-3.273-3.538 0-1.975 1.466-3.583 3.273-3.583zM24.105 32.64c-.14.206-.203.455-.177.702a1.731 1.731 0 001.106 1.372c.34.14.757.054 1.105.132a.332.332 0 01.177.265c-.02.097 0 .198-.088.265-.544.457-1.138.854-1.592 1.416-.486.523-.517 1.465-.266 2.122.281.758 1.056 1.275 1.814 1.372.552.087 1.043-.069 1.544-.177a.166.166 0 01.134.089c.049.446-.053.83.043 1.238.095.347.213.687.354 1.018a.422.422 0 01-.088.354c-.273.211-.57.39-.885.53l-.75.044-.141.045c-.281.33-.312.693-.486 1.061-.232.388-.66.572-1.018.796a2.34 2.34 0 01-.397.53c-.127.116-.281.115-.442.133-.263.302-.312.719-.4 1.106v.044c.422.04.91.28 1.328.045.359-.165.436-.624.701-.885.215-.233.502-.047.753 0 .378.02.653-.272.973-.399.222-.14.431-.384.663-.53.448-.214 1.039-.086 1.503 0 .374.08.763.033 1.107-.132.3-.186.59-.409.928-.487.302-.156.448-.47.575-.752.096-.26.329-.495.31-.796-.078-.067-.148-.186-.265-.176-.14.203-.28.42-.443.619-.64.872-1.626 1.016-2.654 1.016-1.057-.038-2.015.281-2.742 1.106a.167.167 0 01-.177 0c-.028-.115.086-.223.134-.31.648-.92 1.674-1.123 2.742-1.15.58-.038 1.096-.1 1.592-.354.551-.28.96-.871 1.195-1.415.124-.61.153-1.274.308-1.857.02-.06.083-.063.134-.044.05.02.132.021.132.089-.107.6-.19 1.317.045 1.9.464.611 1.315.206 1.946.178.66-.058 1.225.182 1.857.221.309-.01.687.062.928-.133.067-.105-.024-.192-.044-.309-.02-.175-.122-.43.044-.575.048-.04.094 0 .133.045.07.247.175.483.31.702.33.388.736.704 1.194.928.407.28.723.655.751 1.15 0 .25-.202.459-.397.575a2.07 2.07 0 01-1.107.265c-.512-.252-.633-.797-.972-1.194a.843.843 0 00-.702-.22 3.53 3.53 0 00-.797.131.247.247 0 00-.088.222c.176.32.38.608.576.928.223.14.514-.065.702.177.164.254.28.562.53.752a.901.901 0 00.928.177c.718-.223 1.455-.44 2.125-.796h.22c.272-.03.562-.018.753-.221.212-.296.404-.606.574-.928.164-.224.067-.599 0-.843a4.644 4.644 0 01-.702-1.327c-.164-.049-.302-.14-.486-.132-.087.038-.216.035-.265.132l.796 1.504c.056.14.07.294.043.442-.097.336-.28.64-.53.885-.05.03-.095.024-.132-.044.088-.33.24-.684.22-1.061l-.751-1.327c-.087-.184-.233-.36-.222-.576 0-.096.1-.182.177-.22.328-.108.72-.093.973-.354a3.78 3.78 0 00.62-1.592c.019-.04.03-.133.087-.133.058 0 .06.06.089.088a2.61 2.61 0 01-.442 1.902c-.02.07-.033.127.045.177.369.116.75-.01 1.061-.177a5.652 5.652 0 001.105-.133c.04.02.088.05.088.089-.23.263-.383.584-.442.93-.289.3-.721.58-.75 1.016.048.214.227-.02.353 0 .057.01.132.074.132.133l-.309.442c-.156.253.044.51.044.751a.512.512 0 00.487.31 4.429 4.429 0 001.238-.31c.421-.185.948-.165 1.415-.088.455-.03.767-.364 1.105-.663a.722.722 0 01.487.266 2.544 2.544 0 001.991.796l.044-.045a.117.117 0 00.03-.137.119.119 0 00-.03-.04l-.486-.22c-.323-.204-.69-.482-.796-.843a4.505 4.505 0 00-.487-.973c-.07-.156-.197-.28-.266-.442.02-.02.014-.054.044-.044.505.174.83.66 1.063 1.105.369.515.894.956 1.592.843l.043-.045c.031-.038.02-.058 0-.089l-.354-.177c-.58-.34-.789-1-1.15-1.503-.124-.184-.369-.302-.485-.486-.421-1.136-.78-2.283-.886-3.583-.089-.32-.134-.628-.309-.93-.524-.853-1.198-1.646-1.857-2.431-.06-.06-.194-.1-.222-.177l-2.29-1.89a4.366 4.366 0 00-.885-.486 2.368 2.368 0 00-1.635.044c-.496.262-.937.62-1.46.796-.757.34-1.605.435-2.257 1.018-.376.33-.72.842-1.281.75a2.342 2.342 0 00-1.637.577c-.422.387-.864.864-1.416.972-.484.204-1.054.082-1.544.266-.786.194-1.404.852-2.078 1.327-.67.389-1.334.77-2.168.75a1.423 1.423 0 01-1.238-.927 1.58 1.58 0 01.487-1.637c.494-.593 1.293-.913 1.685-1.593a1.25 1.25 0 00-.088-1.281c-.516-.534-1.278-.589-1.946-.753-.422-.116-.73-.421-1.107-.619h-.008zm36.886.045c-.289.018-.527.202-.75.397-1.483 1.299-3.2 2.19-4.556 3.672-.913.94-1.124 2.118-1.46 3.272-.485 1.747-.722 3.65-2.477 4.733a.14.14 0 00.045.177 1.286 1.286 0 001.238-.354 9.08 9.08 0 011.017-1.371l.088-.044c.05.008.108.021.088.089-.116.388-.457.672-.574 1.06-.156.466-.595.82-.973 1.15v.044a.149.149 0 00.089.134c.853.036 1.461-.579 2.034-1.15a.224.224 0 01.22-.045c.255.195.466.507.798.575a5.222 5.222 0 011.105-.088c.514.156.983.357 1.503.53.263-.008.483-.23.62-.441.106-.253-.064-.509-.044-.753.125-.076.261 0 .397-.044.06-.038.134-.11.134-.176-.099-.447-.493-.777-.62-1.195-.193-.532-.857-.843-.972-1.415.028-.04.082-.083.132-.044.42.3.769.674 1.283.751.395.063.794.093 1.193.089a.158.158 0 00.089-.177c-.167-.34-.3-.696-.398-1.062-.14-.474-.244-1.157-.088-1.684.028-.04.076-.107.132-.089a.21.21 0 01.133.177c.058.824.08 1.606.575 2.256.213.34.578.402.842.663a.526.526 0 01.081.498l-.619.885a1.835 1.835 0 00-.31.619c-.034.233-.034.47 0 .702-.038.02-.05-.025-.089-.045-.155-.32-.34-.729-.176-1.105l.752-1.15.044-.088a2.291 2.291 0 00-.531-.222.702.702 0 00-.22.222l-.703 1.282c-.05.155-.127.28-.088.442.032.2.091.393.177.575.053.246.143.483.265.702.184.204.431-.014.663.044.232.058.298.376.53.442.524.176 1.114.24 1.638.443.272.087.641.224.884 0 .34-.184.421-.545.487-.885.106-.14.33-.084.486-.132.29-.195.361-.578.576-.842l.043-.132c-.028-.087-.098-.106-.177-.134h-.972c-.455.06-.513.531-.703.843a.527.527 0 01-.53.265c-.465-.128-1.07-.204-1.283-.702a.36.36 0 01.088-.354c.253-.307.535-.59.842-.842a1.72 1.72 0 001.062-.796c.115-.164.115-.403.31-.53.058-.01.093.03.132.087.089.281-.043.51-.132.753 1.057.108 1.935-.305 2.962-.265.437 0 .81.071 1.239.043.428-.028.881-.172 1.018-.619.192-.573.053-1.226-.045-1.769l.045-.088c.067-.04.129 0 .177.044.188.56.32 1.138.397 1.725.093.478.29.931.576 1.326.494.739 1.347 1.025 2.21.843a2.984 2.984 0 012.61 1.193v.045c-.019.037-.082.098-.14.088-.551-.42-1.105-.885-1.812-.972-.747-.14-1.38.192-2.08-.089-.766-.251-1.38-1.026-1.684-1.725h-.045a.18.18 0 00-.132.133l.088.574c.117.486.273 1.06.796 1.283.407.242.823.622 1.327.486a3.03 3.03 0 012.433.53c.222.127.421.358.663.443a.813.813 0 00.796-.132c.494-.164.59.485.93.702.3.29.842.177 1.238.177l.088-.045a3.552 3.552 0 00-.31-1.061c-.494.03-.77-.53-1.062-.843-.241-.28-.716-.42-.702-.842-.085-.164-.098-.45-.176-.663-.068-.175-.123-.404-.354-.442-.421-.069-.933.034-1.194-.354-.272-.292.038-.602.089-.884a2.97 2.97 0 00.043-1.238c-.008-.215-.127-.364-.088-.576.097-.184.297-.063.442-.044a2.622 2.622 0 001.685-.133c.68-.329 1.223-1.028 1.195-1.814-.097-1.018-.808-1.86-1.592-2.527-.14-.128-.351-.258-.4-.442-.019-.4.442-.169.665-.266.267-.056.522-.161.751-.31.593-.397.737-1.09.62-1.77-.019-.058 0-.131-.09-.131-.11.098-.228.186-.353.265-.378.222-.885.203-1.282.398-.496.212-1.113.5-1.327 1.061-.05.273-.004.555.132.796.603.952 1.876 1.598 2.08 2.742.077.466-.172.8-.531 1.062-.543.33-1.36.202-1.902-.089-1.048-.524-1.927-1.411-3.053-1.769-.709-.32-1.58-.213-2.21-.702-.477-.31-.928-.748-1.46-.885-.37-.124-.813-.08-1.15-.265a5.254 5.254 0 00-1.106-.796 7.78 7.78 0 00-1.814-.574c-.368-.087-.494-.505-.796-.702-.52-.403-1.075-.674-1.774-.615z" fill="#ED1846"/><path clip-rule="evenodd" d="M25.232 33.274c.668.164 1.404.184 1.92.716a1.245 1.245 0 01.096 1.28c-.387.68-1.172 1.028-1.668 1.622a1.57 1.57 0 00-.494 1.629 1.445 1.445 0 001.243.942c.832.018 1.474-.399 2.142-.788.671-.474 1.29-1.095 2.077-1.29.494-.184 1.086-.087 1.57-.29.552-.107.96-.56 1.388-.95a2.43 2.43 0 011.67-.592c.56.086.88-.421 1.263-.758.65-.581 1.503-.649 2.26-.983.524-.175.97-.552 1.466-.814a2.32 2.32 0 011.619-.058c.324.13.633.295.92.493l2.3 1.91c.028.08.127.128.184.187.66.785 1.338 1.56 1.862 2.415.152.3.263.62.331.95.105 1.3.465 2.434.882 3.57.117.184.34.3.466.484.36.506.594 1.146 1.177 1.485l.348.173a.101.101 0 010 .117l-.06.05c-.701.115-1.232-.32-1.601-.835-.232-.447-.534-.942-1.038-1.116-.03-.01-.049.02-.069.038.07.155.224.28.293.438.195.306.351.637.464.982.107.36.506.63.827.833l.456.234a.117.117 0 01.03.175l-.069.039a2.494 2.494 0 01-1.965-.785.702.702 0 00-.489-.27c-.34.298-.68.599-1.134.63-.468-.08-1-.089-1.427.096-.389.14-.776.3-1.213.32-.203 0-.437-.096-.504-.292 0-.241-.184-.532-.03-.784l.291-.422a.114.114 0 00-.097-.116c-.126-.02-.31.184-.359-.031.03-.435.448-.702.737-.997.061-.343.216-.662.447-.922a.13.13 0 00-.078-.097c-.368.083-.745.13-1.123.14a1.402 1.402 0 01-1.067.167c-.076-.05-.048-.14-.028-.205a2.527 2.527 0 00.421-1.873c-.028-.028-.04-.096-.097-.077-.057.02-.067.058-.087.097a3.932 3.932 0 01-.61 1.63c-.253.261-.652.242-.983.35a.252.252 0 00-.164.203c-.012.215.14.38.231.562l.747 1.348c.018.379-.14.738-.223 1.067.04.067.097.039.14.01.25-.236.435-.533.534-.862a.785.785 0 00-.079-.439l-.765-1.512c.05-.096.174-.078.261-.116.184-.011.331.086.496.14.155.478.387.926.688 1.328.067.243.14.583-.02.805a7.552 7.552 0 01-.552.93c-.194.204-.495.185-.768.215h-.223c-.674.338-1.38.61-2.106.813a.907.907 0 01-.932-.172c-.252-.195-.36-.496-.524-.749-.192-.242-.504-.028-.727-.164-.194-.32-.388-.63-.562-.95a.261.261 0 01.079-.233 3.61 3.61 0 01.814-.127c.261-.02.525.02.702.215.34.396.476.94.99 1.192a1.97 1.97 0 001.077-.261c.195-.118.421-.292.421-.543-.028-.496-.368-.895-.775-1.174a3.684 3.684 0 01-1.195-.932c-.153-.212-.192-.475-.28-.718a.14.14 0 00-.175-.03c-.165.141-.038.388-.018.562.018.117.096.243.028.348-.243.196-.602.099-.91.108-.633-.039-1.204-.28-1.864-.223-.63.03-1.464.447-1.93-.164-.233-.584-.165-1.292-.058-1.892 0-.068-.067-.107-.126-.116a.107.107 0 00-.12.03.108.108 0 00-.02.038c-.157.581-.204 1.24-.33 1.852-.234.543-.611 1.106-1.163 1.387a4.15 4.15 0 01-1.63.387c-1.067.02-2.077.233-2.727 1.156-.047.087-.14.156-.116.27a.14.14 0 00.156.03c.727-.824 1.676-1.144 2.735-1.105 1.027 0 2.035-.175 2.677-1.047.164-.195.272-.409.421-.612.117-.01.204.14.28.203.02.3-.232.506-.328.765-.127.281-.272.621-.572.777-.34.079-.622.31-.923.496a1.626 1.626 0 01-1.075.106c-.465-.087-1.087-.203-1.535.01-.231.14-.421.397-.637.543-.322.127-.594.396-.972.378-.251-.048-.571-.223-.786.01-.271.262-.348.702-.702.863-.421.232-.864 0-1.289-.039l-.02-.018c.086-.388.14-.806.408-1.107a.747.747 0 00.445-.164c.16-.154.298-.33.408-.524.358-.224.786-.408 1.018-.796.174-.367.184-.702.465-1.039l.147-.067.756-.048a4.12 4.12 0 00.883-.495.432.432 0 00.088-.36 7.803 7.803 0 01-.35-1.008c-.098-.407-.029-.804-.078-1.25-.03-.039-.06-.109-.127-.109-.503.108-1 .254-1.55.167-.758-.097-1.545-.592-1.826-1.35-.251-.657-.195-1.58.292-2.106.455-.562 1.028-1 1.571-1.456a.385.385 0 00.117-.261.33.33 0 00-.205-.243c-.349-.078-.736.03-1.076-.117a1.763 1.763 0 01-1.123-1.377 1.137 1.137 0 01.175-.737c.388.208.72.539 1.146.651zm37.526.032c.3.204.436.613.804.703.622.112 1.228.3 1.804.561.408.22.785.49 1.123.806.337.184.756.164 1.123.29.534.14.97.543 1.447.854.629.494 1.502.421 2.21.737 1.124.358 2.037 1.232 3.09 1.755.543.29 1.359.407 1.902.079.36-.263.591-.602.513-1.067-.204-1.144-1.473-1.766-2.076-2.717a1.218 1.218 0 01-.14-.806c.215-.561.824-.863 1.32-1.075.398-.195.903-.156 1.282-.38a2.91 2.91 0 00.348-.288c.087 0 .087.085.105.14.118.68-.008 1.376-.6 1.775a2.286 2.286 0 01-.767.292c-.222.096-.669-.097-.65.3.049.184.234.319.38.447.785.66 1.512 1.492 1.609 2.511.028.785-.514 1.474-1.193 1.803a2.61 2.61 0 01-1.678.14c-.14-.02-.38-.154-.476.03-.04.213.108.387.116.602.065.4.042.81-.067 1.202-.05.28-.35.62-.077.913.261.387.766.27 1.183.34.232.037.3.288.368.464.077.212.097.476.184.64-.008.421.465.583.702.864.292.31.535.842 1.03.814.158.334.262.69.31 1.057l-.068.048c-.397 0-.92.118-1.223-.173-.34-.223-.456-.842-.949-.68a.81.81 0 01-.796.126c-.243-.086-.421-.32-.64-.445a3.076 3.076 0 00-2.454-.554c-.504.14-.903-.213-1.31-.455-.524-.223-.68-.796-.796-1.281l-.096-.601a.14.14 0 01.107-.127h.077c.3.702.892 1.486 1.658 1.737.702.281 1.36-.078 2.106.058.702.087 1.264.543 1.814.97.05.01.087-.04.107-.076v-.05a2.926 2.926 0 00-2.589-1.164c-.863.184-1.737-.106-2.23-.843a3.472 3.472 0 01-.563-1.356 8.848 8.848 0 00-.388-1.699c-.048-.04-.106-.087-.173-.047l-.05.087c.098.541.242 1.191.05 1.764-.14.447-.602.62-1.028.64-.425.02-.825-.057-1.263-.057-1.028-.04-1.911.378-2.968.27.088-.242.252-.505.164-.785a.159.159 0 00-.164-.06c-.196.129-.176.371-.291.536a1.715 1.715 0 01-1.067.786 6.15 6.15 0 00-.835.834.377.377 0 00-.066.368c.212.505.784.571 1.25.702a.534.534 0 00.542-.253c.196-.31.235-.814.688-.872h.99a.282.282 0 01.184.164l-.038.14c-.213.262-.31.611-.6.805-.156.048-.37-.01-.477.14-.059.34-.14.703-.484.884-.243.224-.63.116-.903.03-.523-.204-1.086-.301-1.61-.477-.233-.067-.32-.348-.553-.407-.233-.059-.485.127-.669-.077a2.438 2.438 0 01-.231-.702 2.027 2.027 0 01-.176-.552.744.744 0 01.058-.436l.727-1.32a.627.627 0 01.204-.204c.182.05.358.12.523.214l-.028.087-.748 1.155c-.164.376.011.785.167 1.106.038.019.058.076.097.057a2.443 2.443 0 010-.702c.067-.225.175-.435.32-.62l.591-.874a.562.562 0 00-.05-.514c-.262-.263-.63-.33-.843-.67-.495-.648-.535-1.404-.592-2.23a.21.21 0 00-.14-.175c-.058-.018-.107.05-.141.089-.156.523-.06 1.183.077 1.656.105.373.246.734.421 1.079a.14.14 0 01-.085.155c-.393.017-.786 0-1.175-.05-.514-.077-.884-.476-1.3-.775-.048-.038-.096.02-.125.059.115.571.746.891.94 1.423.127.422.524.749.62 1.195a.218.218 0 01-.106.173c-.14.04-.28-.056-.407.02-.018.244.14.495.03.748-.141.212-.33.466-.592.474-.515-.174-1.01-.387-1.523-.543a5.052 5.052 0 00-1.087.069c-.331-.069-.561-.36-.815-.553a.208.208 0 00-.212.03c-.573.57-1.184 1.181-2.039 1.145a.125.125 0 01-.095-.108l.01-.06c.377-.328.823-.687.982-1.152.117-.39.465-.67.581-1.058.02-.068-.037-.097-.088-.107l-.097.048c-.384.422-.728.88-1.028 1.367a1.288 1.288 0 01-1.23.39.141.141 0 01-.029-.175c1.755-1.076 1.959-2.998 2.443-4.743.34-1.154.581-2.349 1.495-3.29 1.356-1.482 3.055-2.375 4.538-3.674.223-.195.448-.388.737-.408.714-.079 1.286.213 1.796.62z" stroke="#ED1846" stroke-width=".31" stroke-miterlimit="22.93"/><path fill-rule="evenodd" clip-rule="evenodd" d="M61.153 35.119c.077.128-.011.223-.069.322-.396.377-.881.765-1.173 1.221-.102.15-.19.31-.261.476a.058.058 0 01-.068.02c-.077-.233.018-.476.076-.702.205-.542.66-1.048 1.123-1.396.111-.066.313-.086.372.059z" fill="#FDB827"/><path clip-rule="evenodd" d="M61.153 35.119c.077.128-.011.223-.069.322-.396.377-.881.765-1.173 1.221-.102.15-.19.31-.261.476a.058.058 0 01-.068.02c-.077-.233.018-.476.076-.702.205-.542.66-1.048 1.123-1.396.111-.066.313-.086.372.059z" stroke="#FDB827" stroke-width=".31" stroke-miterlimit="22.93"/><path fill-rule="evenodd" clip-rule="evenodd" d="M41.916 36.275c.174.466.194.976.057 1.454a.058.058 0 01-.077.011 6.388 6.388 0 00-.32-1.183c-.087-.224-.38-.407-.243-.671a.243.243 0 01.243-.037c.145.114.26.26.34.426z" fill="#FDB827"/><path clip-rule="evenodd" d="M41.916 36.275c.174.466.194.976.057 1.454a.058.058 0 01-.077.011 6.388 6.388 0 00-.32-1.183c-.087-.224-.38-.407-.243-.671a.243.243 0 01.243-.037c.145.114.26.26.34.426z" stroke="#FDB827" stroke-width=".31" stroke-miterlimit="22.93"/><path fill-rule="evenodd" clip-rule="evenodd" d="M46.455 40.24c.32.36.535.759.421 1.255-.048.095-.04.24-.166.27a.077.077 0 01-.074-.01.077.077 0 01-.03-.068c-.02-.261-.02-.535-.176-.747-.176-.184-.36-.504-.64-.504-.193.059-.34.28-.456.435-.01.02-.039.02-.057.011-.108-.272.105-.504.192-.738.165-.164.128-.649.496-.493.257.133.306.406.49.59z" fill="#FDB827"/><path clip-rule="evenodd" d="M46.455 40.24c.32.36.535.759.421 1.255-.048.095-.04.24-.166.27a.077.077 0 01-.074-.01.077.077 0 01-.03-.068c-.02-.261-.02-.535-.176-.747-.176-.184-.36-.504-.64-.504-.193.059-.34.28-.456.435-.01.02-.039.02-.057.011-.108-.272.105-.504.192-.738.165-.164.128-.649.496-.493.257.133.306.406.49.59z" stroke="#FDB827" stroke-width=".31" stroke-miterlimit="22.93"/><path fill-rule="evenodd" clip-rule="evenodd" d="M56.798 40c.169.221.306.466.406.727a.28.28 0 01-.019.174c-.039.049-.095.118-.165.067-.193-.067-.165-.368-.406-.348-.185-.01-.292.14-.438.223-.251.223-.591.456-.649.796-.049.125-.03.3-.14.368a.12.12 0 01-.091-.018.117.117 0 01-.05-.079 1.39 1.39 0 01.437-1.174c.32-.26.543-.62.805-.92a.297.297 0 01.31.183z" fill="#FDB827"/><path clip-rule="evenodd" d="M56.798 40c.169.221.306.466.406.727a.28.28 0 01-.019.174c-.039.049-.095.118-.165.067-.193-.067-.165-.368-.406-.348-.185-.01-.292.14-.438.223-.251.223-.591.456-.649.796-.049.125-.03.3-.14.368a.12.12 0 01-.091-.018.117.117 0 01-.05-.079 1.39 1.39 0 01.437-1.174c.32-.26.543-.62.805-.92a.297.297 0 01.31.183v0z" stroke="#FDB827" stroke-width=".31" stroke-miterlimit="22.93"/><path fill-rule="evenodd" clip-rule="evenodd" d="M45.845 43.59c.02.183.02.405-.14.523-.193.057-.394.08-.594.066-.047-.018-.115-.047-.095-.105a.91.91 0 01.62-.583c.082 0 .189-.01.209.098z" fill="#FDB827"/><path clip-rule="evenodd" d="M45.845 43.59c.02.183.02.405-.14.523-.193.057-.394.08-.594.066-.047-.018-.115-.047-.095-.105a.91.91 0 01.62-.583c.082 0 .189-.01.209.098z" stroke="#FDB827" stroke-width=".31" stroke-miterlimit="22.93"/><path fill-rule="evenodd" clip-rule="evenodd" d="M56.895 43.762c.059.128.164.263.097.4-.117.085-.32.037-.465.017-.176-.097-.215-.3-.235-.493a.16.16 0 01.06-.14.672.672 0 01.543.216z" fill="#FDB827"/><path clip-rule="evenodd" d="M56.895 43.762c.059.128.164.263.097.4-.117.085-.32.037-.465.017-.176-.097-.215-.3-.235-.493a.16.16 0 01.06-.14.672.672 0 01.543.216v0z" stroke="#FDB827" stroke-width=".31" stroke-miterlimit="22.93"/><path fill-rule="evenodd" clip-rule="evenodd" d="M38.946 44.606c.02.127.205.262.079.37a.998.998 0 01-.775.242c-.223-.166-.215-.496-.408-.702-.048-.166-.32-.166-.263-.35l.088-.059a5.68 5.68 0 00.931-.059c.312.006.223.374.348.558z" fill="#ED1846"/><path clip-rule="evenodd" d="M38.946 44.606c.02.127.205.262.079.37a.998.998 0 01-.775.242c-.223-.166-.215-.496-.408-.702-.048-.166-.32-.166-.263-.35l.088-.059a5.68 5.68 0 00.931-.059c.312.006.223.374.348.558z" stroke="#ED1846" stroke-width=".31" stroke-miterlimit="22.93"/><path fill-rule="evenodd" clip-rule="evenodd" d="M63.83 44.305c-.044.273-.119.54-.222.797-.088.176-.33.117-.496.097-.175-.069-.447-.089-.475-.33a.928.928 0 01.194-.623c.26-.036.561.02.824-.028a.14.14 0 01.176.087z" fill="#ED1846"/><path clip-rule="evenodd" d="M63.83 44.305c-.044.273-.119.54-.222.797-.088.176-.33.117-.496.097-.175-.069-.447-.089-.475-.33a.928.928 0 01.194-.623c.26-.036.561.02.824-.028a.14.14 0 01.176.087z" stroke="#ED1846" stroke-width=".31" stroke-miterlimit="22.93"/><path fill-rule="evenodd" clip-rule="evenodd" d="M24.795 44.722c-.153.281-.348.613-.649.787a.503.503 0 01-.36-.02c-.057-.059-.175-.125-.175-.223s-.018-.251.078-.32c.236-.14.46-.3.67-.475.068-.018.155-.058.214-.01a.62.62 0 01.222.261z" fill="#ED1846"/><path clip-rule="evenodd" d="M24.795 44.722c-.153.281-.348.613-.649.787a.503.503 0 01-.36-.02c-.057-.059-.175-.125-.175-.223s-.018-.251.078-.32c.236-.14.46-.3.67-.475.068-.018.155-.058.214-.01a.62.62 0 01.222.261v0z" stroke="#ED1846" stroke-width=".31" stroke-miterlimit="22.93"/><path fill-rule="evenodd" clip-rule="evenodd" d="M77.438 44.519c.235.195.524.35.703.602a.387.387 0 01-.116.32.546.546 0 01-.338.141.443.443 0 01-.34-.203c-.14-.214-.34-.407-.407-.641.1-.14.304-.384.498-.22z" fill="#ED1846"/><path clip-rule="evenodd" d="M77.438 44.519c.235.195.524.35.703.602a.387.387 0 01-.116.32.546.546 0 01-.338.141.443.443 0 01-.34-.203c-.14-.214-.34-.407-.407-.641.1-.14.304-.384.498-.22z" stroke="#ED1846" stroke-width=".31" stroke-miterlimit="22.93"/><path fill-rule="evenodd" clip-rule="evenodd" d="M23.553 45.91v.098c-.14.329-.223.746-.338 1.123l-.04.02c-.221-.049-.42-.14-.64-.203-.057-.06 0-.128.01-.184.242-.225.174-.516.222-.826a.672.672 0 01.36-.397c.195.036.311.22.426.369z" fill="#ED1846"/><path clip-rule="evenodd" d="M23.553 45.91v.098c-.14.329-.223.746-.338 1.123l-.04.02c-.221-.049-.42-.14-.64-.203-.057-.06 0-.128.01-.184.242-.225.174-.516.222-.826a.672.672 0 01.36-.397c.195.036.311.22.426.369z" stroke="#ED1846" stroke-width=".31" stroke-miterlimit="22.93"/><path fill-rule="evenodd" clip-rule="evenodd" d="M78.876 45.8c.14.204.085.513.14.736.04.166.243.3.14.476l-.62.204c-.107 0-.068-.14-.107-.204a6.8 6.8 0 00-.261-.96c-.03-.204.173-.34.309-.455.154-.04.27.105.398.203z" fill="#ED1846"/><path clip-rule="evenodd" d="M78.876 45.8c.14.204.085.513.14.736.04.166.243.3.14.476l-.62.204c-.107 0-.068-.14-.107-.204a6.8 6.8 0 00-.261-.96c-.03-.204.173-.34.309-.455.154-.04.27.105.398.203z" stroke="#ED1846" stroke-width=".31" stroke-miterlimit="22.93"/></svg>