<svg width="159" height="50" fill="none" xmlns="http://www.w3.org/2000/svg"><path d="M2.895.149c.074.074 3.42 1.896 7.398 4.126l11.19 6.171c2.155 1.19 4.088 2.193 4.237 2.193.335 0 5.762-2.9 17.472-9.368L49.14 0H25.943C13.155 0 2.821.074 2.895.149zM.664 2.862c.112.298 13.68 27.25 22.342 44.35L24.42 50l-.112-17.25-.074-17.211-8.364-4.647C3.006 3.755.516 2.454.664 2.862zM39.028 9.07L27.43 15.428l-.037 17.064c0 9.405.074 16.989.148 16.914.26-.26 7.1-13.754 14.387-28.253C50.7 3.717 51.222 2.602 50.887 2.64c-.149.038-5.502 2.9-11.859 6.432zm18.03 1.562c-1.97 1.04-3.01 4.572-2.044 6.915.929 2.193 1.97 2.639 6.877 2.862 6.394.335 5.502.93-1.524 1.078l-5.874.112.112 2.23.111 2.268 6.246-.038c3.42-.037 6.617-.223 7.063-.371 1.784-.707 2.64-2.156 2.788-4.684.297-4.313-1.227-5.39-7.584-5.39-2.974 0-3.903-.112-3.792-.484.15-.334 1.71-.483 5.8-.558l5.65-.111v-4.423h-6.394c-4.981.036-6.654.148-7.435.594zm14.945 1.636v2.23H88.36v-4.46H72.003v2.23zm21.747-1.71c-1.376.632-2.974 2.305-3.495 3.68-.594 1.487-.52 6.394.112 7.807.595 1.45 2.268 3.048 3.68 3.568.595.224 2.342.41 3.904.41 4.87-.038 7.435-1.86 7.806-5.614l.186-1.822h-2.23c-2.082 0-2.194.038-2.602 1.116-.893 2.416-5.316 2.49-6.395.111-.854-1.896-.222-4.2 1.339-4.907 2.007-.93 4.424-.223 5.056 1.45.408 1.078.52 1.115 2.565 1.115h2.156V16.06c0-2.081-1.376-4.2-3.346-5.204-1.301-.632-2.268-.818-4.647-.818-1.635.037-3.457.26-4.089.52zm13.568 7.434v7.956l2.231.149 2.23.111v-5.762h1.227c1.041 0 1.784.595 5.837 4.647l4.646 4.647h7.026l-1.635-1.673-1.636-1.673 6.877-.074 6.84-.112.112-2.342.112-2.305H124.79v2.417l-1.895-1.896-1.896-1.896 1.152-1.153c1.041-1.04 1.152-1.338 1.152-3.494-.037-2.64-.483-3.755-2.081-4.796-.967-.632-1.785-.706-7.472-.706h-6.432v7.955zm11.45-2.862c.112.372-.743.483-3.42.483-2.974 0-3.569-.111-3.569-.557 0-.483.558-.558 3.42-.483 2.305.074 3.458.26 3.569.557z" fill="#060606"/><path d="M124.791 12.268v2.23h16.356v-4.46h-16.356v2.23zm17.472 0v2.193l2.862.111 2.825.112-.037 5.65-.074 5.688h4.833V14.498h5.576v-4.46h-15.985v2.23zm-70.112 3.866c-.111.26-.149 1.301-.074 2.305l.111 1.821 8.104.112 8.067.074v-4.833h-7.992c-6.469 0-8.067.112-8.216.52zm52.64 1.896v2.416h16.394l-.112-2.342-.111-2.305-8.067-.111-8.104-.075v2.417zm-52.788 5.762v2.23H88.36v-4.46H72.003v2.23zm34.944 15.241v8.179h16.357v-4.833h-11.525V30.855h-4.832v8.178zm22.379-7.658c-1.971.67-2.9 1.45-3.904 3.383-.632 1.264-.78 2.342-.929 6.952l-.149 5.502h4.907v-3.346h7.063v3.346h4.536l-.149-5.874c-.111-5.353-.186-5.948-1.004-7.249-.483-.78-1.524-1.747-2.416-2.193-1.933-1.004-5.762-1.227-7.955-.52zm5.799 4.945c.446.371.892 1.115 1.041 1.672l.223 1.041h-3.569c-3.346 0-3.569-.037-3.569-.743 0-.446.409-1.19.93-1.673 1.115-1.152 3.754-1.301 4.944-.297zm6.766 2.713v8.179h6.134c6.952 0 8.253-.298 9.479-2.305.893-1.487 1.004-4.424.186-5.242-.483-.483-.483-.594 0-1.003.893-.744.744-4.09-.297-5.614-1.227-1.859-2.565-2.156-9.442-2.156l-6.06-.037v8.178zm11.71-2.788c0 .223-1.45.41-3.42.484-2.937.074-3.457 0-3.457-.484 0-.483.52-.557 3.457-.483 1.97.074 3.42.26 3.42.483zm-.409 5.242c1.45.558.335.892-2.937.892-2.899 0-3.531-.111-3.531-.557 0-.447.557-.558 2.937-.558 1.635 0 3.197.111 3.531.223z" fill="#060606"/></svg>